<?xml version="1.0" standalone="no"?>
<!DOCTYPE svg PUBLIC "-//W3C//DTD SVG 20010904//EN"
 "http://www.w3.org/TR/2001/REC-SVG-20010904/DTD/svg10.dtd">
<svg version="1.0" xmlns="http://www.w3.org/2000/svg"
 width="1366.000000pt" height="659.000000pt" viewBox="0 0 1366.000000 659.000000"
 preserveAspectRatio="xMidYMid meet">
<metadata>
Created by potrace 1.15, written by Peter Selinger 2001-2017
</metadata>
<g transform="translate(0.000000,659.000000) scale(0.100000,-0.100000)"
fill="#000000" stroke="none">
<path d="M992 5162 c-20 -20 -28 -39 -175 -402 l-103 -255 -35 -3 c-19 -1 -46
-8 -62 -14 -28 -11 -27 -10 -96 -238 -7 -23 -13 -25 -77 -28 -101 -4 -104 -9
-104 -154 l0 -118 -49 0 c-53 0 -101 -14 -113 -33 -4 -7 -8 -384 -8 -839 l0
-827 22 -15 c14 -10 44 -16 80 -16 l58 0 0 -395 0 -395 700 0 700 0 0 395 0
395 58 0 c36 0 66 6 80 16 l22 15 0 828 c0 955 11 862 -106 869 l-64 4 0 118
c0 141 -4 147 -99 152 l-64 3 -29 85 c-54 159 -58 167 -84 179 -14 6 -38 11
-55 11 -35 0 -20 -31 -180 364 -62 154 -121 288 -131 298 -23 23 -63 23 -86 0z
m122 -449 c47 -116 86 -214 86 -217 0 -3 -79 -6 -176 -6 -137 0 -175 3 -171
13 130 327 171 426 173 424 1 -1 41 -97 88 -214z m476 -703 l0 -80 -560 0
-560 0 0 80 0 80 560 0 560 0 0 -80z m-628 -457 c2 -10 4 -106 3 -213 l0 -195
-214 -3 -214 -2 7 42 c11 72 71 181 135 246 72 71 177 126 272 141 4 1 9 -7
11 -16z m210 -13 c156 -48 285 -182 327 -337 15 -55 15 -199 1 -253 -22 -83
-65 -155 -131 -222 -78 -79 -157 -121 -266 -140 -231 -39 -469 101 -542 320
-38 111 -59 102 232 102 203 0 257 3 273 14 18 13 19 30 22 275 2 144 7 261
11 261 5 0 38 -9 73 -20z m118 -1660 l0 -340 -265 0 -265 0 0 340 0 340 265 0
265 0 0 -340z"/>
<path d="M3051 3450 c-56 -12 -120 -50 -149 -89 -48 -66 -52 -95 -52 -392 l0
-279 110 0 110 0 0 90 0 90 35 0 35 0 0 100 0 100 -36 0 -37 0 5 65 c6 68 19
95 47 95 39 0 41 -16 41 -282 l0 -258 116 0 115 0 -3 298 c-3 278 -4 300 -24
342 -25 53 -56 83 -105 104 -47 20 -152 27 -208 16z"/>
<path d="M5037 3450 c-91 -23 -142 -64 -179 -145 -22 -48 -23 -62 -26 -332
l-3 -283 115 0 116 0 0 251 c0 255 4 289 38 289 40 0 42 -15 42 -282 l0 -258
116 0 115 0 -3 298 -3 297 -31 54 c-40 71 -102 108 -194 115 -36 3 -82 1 -103
-4z"/>
<path d="M6960 3447 c-118 -27 -217 -107 -268 -215 -24 -51 -27 -68 -27 -172
0 -112 1 -117 34 -178 41 -75 103 -135 179 -170 51 -24 68 -27 172 -27 106 0
120 2 172 28 107 53 181 159 206 296 l9 52 -120 -3 -120 -3 -14 -47 c-15 -52
-46 -82 -104 -99 -52 -16 -119 9 -157 59 -23 30 -27 45 -27 97 0 52 4 67 29
99 70 93 196 84 249 -17 l19 -37 112 6 c61 4 115 10 120 15 15 13 -19 110 -58
166 -85 124 -251 185 -406 150z"/>
<path d="M9890 3450 c-103 -22 -180 -102 -200 -209 -5 -29 -10 -166 -10 -302
l0 -249 115 0 115 0 0 243 c0 133 3 252 6 264 8 30 42 40 63 19 14 -14 16 -51
19 -271 l3 -255 109 0 110 0 0 278 c0 302 -5 343 -54 406 -49 64 -170 97 -276
76z"/>
<path d="M10590 3447 c-199 -47 -318 -236 -282 -449 33 -190 174 -318 350
-318 86 0 131 13 184 53 98 74 126 208 67 325 l-31 62 -109 0 -109 0 0 -89 0
-90 38 -3 c25 -2 37 -8 37 -18 0 -23 -73 -24 -115 -2 -55 30 -80 75 -80 142 0
63 22 106 73 144 30 23 107 28 160 12 l27 -8 0 115 c0 111 -1 115 -23 121 -54
13 -136 14 -187 3z"/>
<path d="M2200 3066 l0 -376 115 0 115 0 0 270 0 270 33 0 c39 0 77 -24 77
-49 0 -25 -32 -51 -63 -51 l-27 0 0 -95 c0 -93 1 -97 54 -217 l55 -123 120 -3
c67 -1 121 0 121 3 0 2 -27 70 -60 150 -33 80 -60 148 -60 151 0 4 15 24 34
45 102 113 61 300 -82 371 -43 21 -62 23 -239 26 l-193 4 0 -376z"/>
<path d="M3510 3065 l0 -375 115 0 115 0 0 266 0 267 74 -6 c86 -6 129 -26
156 -70 26 -42 26 -112 0 -155 -25 -41 -89 -71 -152 -72 l-48 0 0 -116 0 -117
89 5 c154 9 271 83 329 207 22 46 28 73 30 156 4 120 -16 187 -77 257 -87 98
-190 128 -453 128 l-178 0 0 -375z"/>
<path d="M4448 3428 c-20 -5 -55 -25 -77 -45 -64 -54 -74 -102 -69 -341 3
-194 3 -198 30 -244 44 -74 101 -97 266 -105 l132 -6 0 111 0 112 -69 0 c-87
0 -128 8 -136 27 -12 32 14 43 106 43 l89 0 0 85 0 85 -71 0 c-74 0 -109 11
-109 35 0 24 35 35 114 35 l76 0 0 110 0 110 -122 -1 c-68 -1 -139 -5 -160
-11z"/>
<path d="M5700 3330 l0 -110 85 0 85 0 0 -265 0 -265 115 0 115 0 0 265 0 265
85 0 85 0 0 110 0 110 -285 0 -285 0 0 -110z"/>
<path d="M6340 3065 l0 -375 110 0 110 0 0 375 0 375 -110 0 -110 0 0 -375z"/>
<path d="M7530 3065 l0 -375 115 0 115 0 2 191 3 191 77 -189 76 -188 126 -3
c88 -2 126 1 126 9 0 6 -40 95 -90 199 -49 104 -90 194 -90 200 0 7 41 81 90
166 50 84 90 158 90 164 0 6 -42 10 -114 10 l-115 0 -88 -155 -88 -154 -3 154
-3 155 -114 0 -115 0 0 -375z"/>
<path d="M8368 3428 c-20 -5 -55 -25 -77 -45 -64 -54 -74 -102 -69 -341 3
-194 3 -198 30 -244 44 -74 101 -97 266 -105 l132 -6 0 111 0 112 -69 0 c-87
0 -128 8 -136 27 -12 32 14 43 106 43 l89 0 0 85 0 85 -71 0 c-74 0 -109 11
-109 35 0 24 35 35 114 35 l76 0 0 110 0 110 -122 -1 c-68 -1 -139 -5 -160
-11z"/>
<path d="M8700 3330 l0 -110 85 0 85 0 0 -265 0 -265 115 0 115 0 0 265 0 265
80 0 80 0 0 110 0 110 -280 0 -280 0 0 -110z"/>
<path d="M9330 3065 l0 -375 115 0 115 0 0 375 0 375 -115 0 -115 0 0 -375z"/>
</g>
</svg>
